<svg height="708.6999999999999pt" viewBox="-212.60000000000002 -2.0 457.59999999999997 708.6999999999999" width="457.59999999999997pt" xml:lang="en" xmlns="http://www.w3.org/2000/svg"><polygon points="76.95,40.5 77.27128576765485,40.497451085395966 77.59249065333586,40.489804983259496 77.91353379543078,40.4770636184559 78.23433437304543,40.45923019855565 78.55481162634996,40.43630921302683 78.8748848769097,40.40830643210496 79.19447354799547,40.37522890534039 79.51349718486841,40.3370849598236 79.83187547503401,40.29388419808888 80.14952826846033,40.245637495696975 80.46637559775533,40.1923569984972 80.7823376982983,40.134056119569806 81.0973350283201,40.07074953584926 81.41128828892745,40.002453184429484 81.72411844406591,39.929184258551714 82.03574674041685,39.850961203276206 82.3460947272232,39.76780371083882 82.65508427603895,39.67973271569356 82.96263760039756,39.58677038924249 83.26867727539437,39.48894013425414 83.57312625717779,39.386266578972034 83.87590790234479,39.27877557091464 84.1769459872354,39.16649417036841 84.47616472712164,39.04945064357546 84.77348879528584,38.92767445561777 85.06884334198392,38.80119626299941 85.36215401328819,38.670047905928996 85.65334696980572,38.53426240030407 85.94234890526693,38.39387392939955 86.22908706498006,38.2489178352622 86.51348926414683,38.09943060981353 86.79548390603449,37.94544988566314 87.075,37.78701442663487 87.35196717936148,37.624164118008274 87.62631571911268,37.456939956477655 87.89797655347586,37.28538403983141 88.16688129328872,37.10953955635411 88.43296224322111,36.92945077395411 88.69615241881677,36.74516302901929 88.95638556335646,36.55672271500393 89.21359616453775,36.364177270749344 89.46771947096725,36.16757516854145 89.71869150846157,35.96696590190807 89.96644909615242,35.7623999731593 90.21092986239202,35.55392888067372 90.4520722604549,35.34160510593402 90.68981558403193,35.12548210031504 90.92409998251277,34.90561427162766 91.154866476053,34.68205697042196 91.38205697042197,34.454866476053 91.60561427162766,34.22409998251276 91.82548210031504,33.989815584031916 92.04160510593402,33.7520722604549 92.25392888067373,33.51092986239202 92.46239997315931,33.266449096152414 92.66696590190807,33.01869150846157 92.86757516854145,32.76771947096725 93.06417727074935,32.513596164537745 93.25672271500395,32.25638556335647 93.4451630290193,31.99615241881676 93.62945077395412,31.732962243221102 93.80953955635412,31.466881293288726 93.98538403983142,31.197976553475847 94.15693995647766,30.926315719112665 94.32416411800828,30.65196717936147 94.48701442663489,30.374999999999993 94.64544988566314,30.095483906034485 94.79943060981354,29.81348926414682 94.9489178352622,29.529087064980057 95.09387392939955,29.24234890526692 95.23426240030408,28.953346969805718 95.370047905929,28.662154013288195 95.5011962629994,28.368843341983922 95.62767445561776,28.073488795285847 95.74945064357546,27.77616472712163 95.8664941703684,27.4769459872354 95.97877557091464,27.17590790234479 96.08626657897203,26.87312625717778 96.18894013425414,26.56867727539436 96.2867703892425,26.26263760039756 96.37973271569358,25.955084276038942 96.46780371083882,25.6460947272232 96.55096120327622,25.335746740416848 96.62918425855172,25.024118444065895 96.70245318442949,24.71128828892744 96.77074953584926,24.397335028320104 96.83405611956981,24.0823376982983 96.89235699849722,23.76637559775533 96.94563749569699,23.449528268460327 96.99388419808889,23.13187547503402 97.0370849598236,22.813497184868417 97.0752289053404,22.49447354799547 97.10830643210497,22.174884876909694 97.13630921302683,21.85481162634996 97.15923019855565,21.534334373045425 97.1770636184559,21.213533795430774 97.18980498325949,20.892490653335862 97.19745108539595,20.571285767654853 97.19999999999999,20.249999999999996 97.19999999999999,20.250000000000004 97.19745108539595,19.928714232345143 97.18980498325949,19.60750934666413 97.1770636184559,19.286466204569223 97.15923019855565,18.96566562695457 97.13630921302683,18.645188373650036 97.10830643210497,18.325115123090303 97.0752289053404,18.00552645200453 97.0370849598236,17.686502815131583 96.99388419808888,17.368124524965978 96.94563749569697,17.050471731539666 96.89235699849722,16.733624402244665 96.83405611956981,16.417662301701696 96.77074953584926,16.102664971679893 96.70245318442949,15.788711711072555 96.62918425855172,15.475881555934102 96.55096120327622,15.164253259583148 96.46780371083882,14.853905272776796 96.37973271569358,14.54491572396105 96.2867703892425,14.237362399602437 96.18894013425414,13.93132272460564 96.08626657897203,13.626873742822214 95.97877557091464,13.324092097655212 95.8664941703684,13.023054012764598 95.74945064357546,12.72383527287837 95.62767445561776,12.426511204714147 95.5011962629994,12.131156658016074 95.370047905929,11.837845986711802 95.23426240030408,11.546653030194278 95.09387392939955,11.257651094733077 94.9489178352622,10.970912935019943 94.79943060981354,10.686510735853178 94.64544988566314,10.404516093965512 94.48701442663487,10.125000000000004 94.32416411800828,9.848032820638526 94.15693995647766,9.573684280887328 93.98538403983142,9.302023446524153 93.80953955635411,9.03311870671127 93.62945077395412,8.767037756778896 93.4451630290193,8.50384758118324 93.25672271500395,8.243614436643535 93.06417727074935,7.986403835462252 92.86757516854145,7.732280529032749 92.66696590190807,7.481308491538423 92.46239997315931,7.233550903847584 92.25392888067373,6.989070137607979 92.04160510593402,6.747927739545099 91.82548210031504,6.510184415968076 91.60561427162766,6.275900017487235 91.38205697042197,6.0451335239469985 91.154866476053,5.817943029578029 90.92409998251277,5.594385728372332 90.68981558403193,5.374517899684953 90.4520722604549,5.158394894065972 90.21092986239202,4.946071119326274 89.96644909615242,4.737600026840699 89.71869150846157,4.533034098091928 89.46771947096725,4.332424831458556 89.21359616453775,4.135822729250653 88.95638556335646,3.9432772849960687 88.69615241881675,3.754836970980704 88.43296224322111,3.5705492260458884 88.16688129328872,3.3904604436458814 87.89797655347586,3.214615960168585 87.62631571911267,3.0430600435223383 87.35196717936148,2.8758358819917187 87.075,2.712985573365119 86.79548390603449,2.55455011433686 86.51348926414683,2.4005693901864675 86.22908706498006,2.251082164737804 85.94234890526693,2.106126070600451 85.65334696980572,1.9657375996959239 85.36215401328819,1.8299520940710068 85.06884334198392,1.698803737000593 84.77348879528584,1.5723255443822304 84.47616472712164,1.4505493564245322 84.1769459872354,1.3335058296315925 83.87590790234479,1.2212244290853598 83.57312625717779,1.1137334210279677 83.26867727539437,1.0110598657458572 82.96263760039756,0.9132296107575081 82.65508427603895,0.8202672843064331 82.3460947272232,0.7321962891611767 82.03574674041685,0.6490387967237891 81.72411844406591,0.5708157414482865 81.41128828892745,0.49754681557051045 81.0973350283201,0.42925046415073537 80.7823376982983,0.3659438804301932 80.46637559775533,0.3076430015027925 80.14952826846033,0.25436250430301743 79.83187547503401,0.20611580191111809 79.51349718486841,0.16291504017639794 79.19447354799547,0.1247710946596094 78.8748848769097,0.09169356789503977 78.55481162634996,0.0636907869731694 78.23433437304543,0.04076980144434419 77.91353379543078,0.0229363815440919 77.59249065333586,0.010195016740507023 77.27128576765485,0.0025489146040348133 76.95,3.597122599785507e-15 -76.95,3.597122599785507e-15 -77.27128576765485,0.0025489146040348133 -77.59249065333586,0.010195016740507023 -77.91353379543078,0.0229363815440919 -78.23433437304543,0.04076980144434419 -78.55481162634996,0.0636907869731694 -78.8748848769097,0.09169356789503977 -79.19447354799546,0.1247710946596094 -79.51349718486841,0.16291504017639794 -79.83187547503401,0.20611580191111448 -80.14952826846033,0.25436250430302104 -80.46637559775533,0.3076430015027925 -80.7823376982983,0.3659438804301932 -81.0973350283201,0.42925046415073537 -81.41128828892745,0.49754681557051045 -81.7241184440659,0.5708157414482865 -82.03574674041685,0.6490387967237891 -82.3460947272232,0.7321962891611767 -82.65508427603895,0.8202672843064331 -82.96263760039756,0.9132296107575081 -83.26867727539437,1.0110598657458572 -83.57312625717779,1.1137334210279677 -83.87590790234479,1.221224429085356 -84.1769459872354,1.3335058296315925 -84.47616472712163,1.4505493564245322 -84.77348879528584,1.5723255443822304 -85.06884334198392,1.698803737000593 -85.36215401328819,1.8299520940710068 -85.65334696980572,1.9657375996959239 -85.94234890526693,2.106126070600451 -86.22908706498006,2.251082164737804 -86.51348926414681,2.4005693901864675 -86.79548390603449,2.5545501143368563 -87.075,2.7129855733651227 -87.35196717936147,2.875835881991715 -87.62631571911267,3.0430600435223383 -87.89797655347586,3.214615960168585 -88.16688129328872,3.3904604436458814 -88.43296224322111,3.5705492260458884 -88.69615241881675,3.754836970980704 -88.95638556335646,3.943277284996065 -89.21359616453775,4.135822729250649 -89.46771947096725,4.332424831458559 -89.71869150846157,4.53303409809193 -89.96644909615242,4.737600026840699 -90.21092986239202,4.946071119326274 -90.4520722604549,5.158394894065968 -90.68981558403192,5.374517899684951 -90.92409998251277,5.594385728372329 -91.154866476053,5.817943029578034 -91.38205697042197,6.045133523947 -91.60561427162766,6.275900017487237 -91.82548210031504,6.510184415968076 -92.04160510593402,6.747927739545099 -92.25392888067373,6.989070137607977 -92.46239997315931,7.233550903847578 -92.66696590190807,7.4813084915384245 -92.86757516854145,7.732280529032742 -93.06417727074935,7.986403835462254 -93.25672271500395,8.243614436643535 -93.4451630290193,8.503847581183239 -93.6294507739541,8.767037756778892 -93.80953955635411,9.033118706711269 -93.98538403983142,9.30202344652415 -94.15693995647766,9.573684280887322 -94.32416411800828,9.848032820638526 -94.48701442663489,10.125000000000005 -94.64544988566314,10.404516093965512 -94.79943060981354,10.686510735853178 -94.9489178352622,10.97091293501994 -95.09387392939955,11.257651094733083 -95.23426240030408,11.546653030194275 -95.370047905929,11.837845986711805 -95.5011962629994,12.131156658016069 -95.62767445561776,12.426511204714147 -95.74945064357546,12.72383527287837 -95.8664941703684,13.023054012764597 -95.97877557091464,13.324092097655209 -96.08626657897203,13.62687374282221 -96.18894013425414,13.931322724605643 -96.2867703892425,14.23736239960243 -96.37973271569358,14.54491572396105 -96.46780371083882,14.853905272776794 -96.55096120327622,15.164253259583147 -96.62918425855172,15.4758815559341 -96.70245318442949,15.788711711072551 -96.77074953584926,16.102664971679896 -96.83405611956981,16.417662301701693 -96.89235699849722,16.733624402244665 -96.94563749569697,17.050471731539666 -96.99388419808888,17.368124524965978 -97.0370849598236,17.68650281513158 -97.0752289053404,18.005526452004528 -97.10830643210497,18.32511512309031 -97.13630921302683,18.645188373650033 -97.15923019855565,18.96566562695457 -97.1770636184559,19.286466204569223 -97.18980498325949,19.60750934666413 -97.19745108539595,19.92871423234514 -97.19999999999999,20.25 -97.19999999999999,20.25 -97.19745108539595,20.571285767654857 -97.18980498325949,20.892490653335866 -97.1770636184559,21.213533795430777 -97.15923019855565,21.534334373045436 -97.13630921302683,21.85481162634997 -97.10830643210497,22.1748848769097 -97.0752289053404,22.494473547995476 -97.0370849598236,22.813497184868424 -96.99388419808889,23.131875475034022 -96.94563749569699,23.449528268460334 -96.89235699849722,23.766375597755335 -96.83405611956981,24.08233769829831 -96.77074953584926,24.397335028320114 -96.70245318442949,24.711288288927452 -96.62918425855172,25.024118444065902 -96.55096120327622,25.33574674041685 -96.46780371083882,25.646094727223208 -96.37973271569358,25.955084276038946 -96.2867703892425,26.26263760039757 -96.18894013425414,26.568677275394368 -96.08626657897203,26.87312625717779 -95.97877557091464,27.175907902344793 -95.8664941703684,27.476945987235403 -95.74945064357546,27.776164727121632 -95.62767445561776,28.07348879528585 -95.5011962629994,28.368843341983933 -95.370047905929,28.662154013288202 -95.23426240030408,28.95334696980573 -95.09387392939955,29.242348905266926 -94.9489178352622,29.529087064980065 -94.79943060981354,29.813489264146824 -94.64544988566314,30.09548390603449 -94.48701442663487,30.375000000000007 -94.32416411800828,30.651967179361474 -94.15693995647766,30.926315719112676 -93.98538403983142,31.197976553475854 -93.80953955635412,31.466881293288733 -93.62945077395412,31.73296224322111 -93.4451630290193,31.996152418816763 -93.25672271500395,32.25638556335647 -93.06417727074935,32.51359616453775 -92.86757516854145,32.76771947096726 -92.66696590190807,33.01869150846158 -92.46239997315931,33.26644909615242 -92.25392888067373,33.51092986239202 -92.04160510593404,33.75207226045491 -91.82548210031504,33.98981558403192 -91.60561427162766,34.22409998251277 -91.38205697042196,34.454866476053006 -91.154866476053,34.68205697042198 -90.92409998251277,34.90561427162767 -90.68981558403193,35.12548210031505 -90.4520722604549,35.34160510593403 -90.21092986239202,35.55392888067372 -89.96644909615243,35.762399973159305 -89.71869150846157,35.966965901908075 -89.46771947096725,36.16757516854145 -89.21359616453775,36.36417727074935 -88.95638556335648,36.55672271500393 -88.69615241881677,36.745163029019295 -88.43296224322111,36.92945077395411 -88.16688129328874,37.10953955635412 -87.89797655347586,37.28538403983143 -87.62631571911268,37.45693995647766 -87.35196717936147,37.62416411800829 -87.075,37.78701442663488 -86.79548390603449,37.945449885663145 -86.51348926414683,38.09943060981353 -86.22908706498006,38.248917835262205 -85.94234890526693,38.393873929399554 -85.65334696980572,38.53426240030408 -85.36215401328819,38.670047905928996 -85.06884334198394,38.80119626299941 -84.77348879528584,38.92767445561777 -84.47616472712164,39.04945064357547 -84.1769459872354,39.166494170368416 -83.87590790234479,39.278775570914654 -83.57312625717779,39.38626657897204 -83.26867727539437,39.48894013425415 -82.96263760039757,39.5867703892425 -82.65508427603895,39.679732715693575 -82.34609472722322,39.76780371083883 -82.03574674041685,39.85096120327622 -81.7241184440659,39.92918425855172 -81.41128828892745,40.0024531844295 -81.0973350283201,40.070749535849274 -80.7823376982983,40.13405611956981 -80.46637559775533,40.19235699849722 -80.14952826846034,40.24563749569699 -79.83187547503402,40.29388419808889 -79.51349718486841,40.337084959823606 -79.19447354799547,40.37522890534039 -78.87488487690969,40.408306432104965 -78.55481162634997,40.43630921302683 -78.23433437304543,40.45923019855566 -77.9135337954308,40.477063618455915 -77.59249065333586,40.489804983259496 -77.27128576765485,40.49745108539597 -76.95,40.5 76.95,40.5 " style="stroke:black;fill:none;stroke-width:2;stroke-linecap:round;stroke-linejoin:round;" /><polygon points="-105.30000000000001,121.5 -97.20000000000002,89.1 97.19999999999997,89.1 80.99999999999999,153.9 -113.4,153.9 " style="stroke:black;fill:none;stroke-width:2;stroke-linecap:round;stroke-linejoin:round;" /><polygon points="-121.50000000000001,234.89999999999998 -113.4,202.5 80.99999999999999,202.5 64.79999999999998,267.3 -129.6,267.3 " style="stroke:black;fill:none;stroke-width:2;stroke-linecap:round;stroke-linejoin:round;" /><polygon points="-153.90000000000003,348.3 -145.8,315.9 80.99999999999997,315.9 64.79999999999997,380.7 -162.00000000000003,380.7 " style="stroke:black;fill:none;stroke-width:2;stroke-linecap:round;stroke-linejoin:round;" /><polygon points="-129.60000000000002,510.29999999999995 -48.60000000000003,429.29999999999995 32.39999999999997,510.29999999999995 -48.60000000000003,591.3 " style="stroke:black;fill:none;stroke-width:2;stroke-linecap:round;stroke-linejoin:round;" /><polygon points="222.74999999999997,530.55 223.07128576765484,530.547451085396 223.3924906533358,530.5398049832595 223.71353379543075,530.5270636184559 224.0343343730454,530.5092301985557 224.3548116263499,530.4863092130269 224.67488487690966,530.4583064321049 224.99447354799543,530.4252289053404 225.3134971848684,530.3870849598236 225.63187547503398,530.3438841980889 225.94952826846028,530.295637495697 226.2663755977553,530.2423569984971 226.58233769829826,530.1840561195698 226.89733502832007,530.1207495358493 227.2112882889274,530.0524531844294 227.52411844406586,529.9791842585516 227.83574674041682,529.9009612032762 228.1460947272232,529.8178037108388 228.4550842760389,529.7297327156936 228.7626376003975,529.6367703892424 229.06867727539432,529.5389401342542 229.37312625717774,529.436266578972 229.67590790234473,529.3287755709147 229.97694598723535,529.2164941703684 230.27616472712157,529.0994506435754 230.5734887952858,528.9776744556177 230.86884334198388,528.8511962629993 231.16215401328816,528.7200479059289 231.4533469698057,528.584262400304 231.74234890526688,528.4438739293995 232.02908706498002,528.2989178352622 232.31348926414677,528.1494306098135 232.59548390603445,527.9954498856631 232.87499999999994,527.8370144266348 233.1519671793614,527.6741641180083 233.42631571911264,527.5069399564776 233.6979765534758,527.3353840398314 233.96688129328868,527.1595395563542 234.23296224322104,526.9794507739541 234.4961524188167,526.7951630290192 234.75638556335642,526.6067227150039 235.0135961645377,526.4141772707493 235.2677194709672,526.2175751685414 235.5186915084615,526.0169659019081 235.76644909615237,525.8123999731592 236.01092986239198,525.6039288806737 236.25207226045487,525.391605105934 236.48981558403187,525.1754821003151 236.7240999825127,524.9556142716276 236.95486647605293,524.7320569704219 237.18205697042194,524.5048664760529 237.4056142716276,524.2740999825128 237.625482100315,524.0398155840319 237.84160510593398,523.8020722604549 238.05392888067368,523.5609298623921 238.26239997315926,523.3164490961524 238.46696590190803,523.0686915084615 238.6675751685414,522.8177194709673 238.86417727074928,522.5635961645377 239.05672271500387,522.3063855633565 239.24516302901924,522.0461524188167 239.42945077395407,521.7829622432212 239.60953955635406,521.5168812932887 239.78538403983137,521.2479765534758 239.9569399564776,520.9763157191127 240.12416411800822,520.7019671793614 240.28701442663484,520.425 240.4454498856631,520.1454839060345 240.59943060981348,519.8634892641468 240.74891783526212,519.57908706498 240.89387392939946,519.2923489052669 241.03426240030402,519.0033469698056 241.17004790592895,518.7121540132882 241.30119626299935,518.4188433419839 241.42767445561773,518.1234887952859 241.5494506435754,517.8261647271216 241.66649417036834,517.5269459872354 241.77877557091458,517.2259079023448 241.886266578972,516.9231262571777 241.98894013425408,516.6186772753944 242.08677038924245,516.3126376003976 242.17973271569352,516.0050842760389 242.26780371083876,515.6960947272232 242.35096120327614,515.3857467404168 242.42918425855166,515.0741184440659 242.5024531844294,514.7612882889274 242.57074953584922,514.4473350283201 242.63405611956975,514.1323376982982 242.69235699849716,513.8163755977554 242.7456374956969,513.4995282684603 242.79388419808882,513.181875475034 242.83708495982353,512.8634971848684 242.87522890534032,512.5444735479955 242.9083064321049,512.2248848769096 242.93630921302676,511.90481162634995 242.95923019855562,511.58433437304546 242.97706361845584,511.26353379543076 242.9898049832594,510.9424906533358 242.9974510853959,510.6212857676548 242.99999999999994,510.29999999999995 242.99999999999997,510.29999999999995 242.99745108539594,509.9787142323451 242.98980498325946,509.65750934666414 242.97706361845587,509.3364662045692 242.95923019855564,509.0156656269545 242.9363092130268,508.69518837365 242.90830643210492,508.37511512309027 242.87522890534035,508.05552645200453 242.83708495982356,507.73650281513153 242.79388419808885,507.41812452496595 242.74563749569694,507.10047173153964 242.6923569984972,506.78362440224464 242.63405611956978,506.4676623017017 242.57074953584925,506.1526649716798 242.50245318442944,505.8387117110725 242.42918425855166,505.5258815559341 242.35096120327617,505.21425325958313 242.2678037108388,504.90390527277674 242.17973271569355,504.59491572396104 242.08677038924247,504.2873623996024 241.9889401342541,503.9813227246056 241.886266578972,503.6768737428222 241.7787755709146,503.3740920976552 241.66649417036837,503.07305401276454 241.54945064357543,502.77383527287833 241.42767445561773,502.47651120471414 241.30119626299938,502.18115665801605 241.17004790592895,501.88784598671174 241.03426240030404,501.5966530301942 240.8938739293995,501.30765109473305 240.74891783526215,501.0209129350199 240.5994306098135,500.73651073585313 240.4454498856631,500.4545160939655 240.28701442663484,500.17499999999995 240.12416411800825,499.8980328206385 239.9569399564776,499.6236842808873 239.7853840398314,499.35202344652413 239.60953955635406,499.0831187067113 239.42945077395407,498.8170377567789 239.24516302901927,498.5538475811832 239.0567227150039,498.2936144366435 238.8641772707493,498.03640383546224 238.66757516854142,497.78228052903273 238.46696590190805,497.5313084915384 238.26239997315926,497.2835509038476 238.0539288806737,497.03907013760795 237.84160510593398,496.79792773954506 237.62548210031503,496.560184415968 237.40561427162763,496.3259000174872 237.18205697042194,496.095133523947 236.95486647605296,495.867943029578 236.72409998251274,495.6443857283723 236.4898155840319,495.42451789968493 236.25207226045487,495.2083948940659 236.010929862392,494.99607111932625 235.76644909615237,494.78760002684066 235.51869150846153,494.5830340980919 235.26771947096722,494.3824248314585 235.01359616453772,494.1858227292506 234.75638556335645,493.99327728499605 234.4961524188167,493.80483697098066 234.23296224322107,493.62054922604585 233.96688129328868,493.44046044364586 233.69797655347583,493.26461596016856 233.42631571911264,493.0930600435223 233.15196717936144,492.9258358819917 232.87499999999997,492.7629855733651 232.59548390603445,492.6045501143368 232.31348926414677,492.45056939018644 232.02908706498002,492.30108216473775 231.74234890526688,492.15612607060046 231.4533469698057,492.0157375996959 231.16215401328816,491.879952094071 230.8688433419839,491.74880373700057 230.5734887952858,491.6223255443822 230.2761647271216,491.5005493564245 229.97694598723535,491.38350582963153 229.67590790234476,491.27122442908535 229.37312625717774,491.1637334210279 229.06867727539435,491.06105986574585 228.76263760039754,490.9632296107575 228.4550842760389,490.8702672843064 228.1460947272232,490.78219628916116 227.83574674041682,490.6990387967238 227.52411844406586,490.62081574144827 227.2112882889274,490.54754681557046 226.89733502832007,490.4792504641507 226.58233769829826,490.4159438804302 226.2663755977553,490.35764300150277 225.94952826846028,490.304362504303 225.63187547503398,490.2561158019111 225.3134971848684,490.21291504017637 224.99447354799543,490.1747710946596 224.67488487690966,490.141693567895 224.35481162634994,490.11369078697317 224.0343343730454,490.0907698014443 223.71353379543075,490.0729363815441 223.39249065333584,490.0601950167405 223.07128576765484,490.052548914604 222.74999999999997,490.04999999999995 101.24999999999997,490.04999999999995 100.92871423234511,490.052548914604 100.6075093466641,490.0601950167405 100.2864662045692,490.0729363815441 99.96566562695453,490.0907698014443 99.64518837365,490.11369078697317 99.32511512309026,490.141693567895 99.0055264520045,490.1747710946596 98.68650281513155,490.21291504017637 98.36812452496595,490.2561158019111 98.05047173153963,490.304362504303 97.73362440224463,490.35764300150277 97.41766230170165,490.4159438804302 97.10266497167986,490.4792504641507 96.78871171107251,490.54754681557046 96.47588155593407,490.62081574144827 96.16425325958312,490.6990387967238 95.85390527277677,490.78219628916116 95.54491572396101,490.8702672843064 95.2373623996024,490.9632296107575 94.93132272460561,491.06105986574585 94.62687374282217,491.1637334210279 94.32409209765518,491.27122442908535 94.02305401276456,491.38350582963153 93.72383527287835,491.5005493564245 93.42651120471412,491.6223255443822 93.13115665801604,491.74880373700057 92.83784598671177,491.879952094071 92.54665303019425,492.0157375996959 92.25765109473303,492.15612607060046 91.9709129350199,492.30108216473775 91.68651073585315,492.45056939018644 91.40451609396547,492.6045501143368 91.12499999999997,492.7629855733651 90.8480328206385,492.9258358819917 90.5736842808873,493.0930600435223 90.30202344652412,493.26461596016856 90.03311870671124,493.44046044364586 89.76703775677886,493.62054922604585 89.50384758118321,493.80483697098066 89.2436144366435,493.99327728499605 88.98640383546221,494.1858227292506 88.7322805290327,494.38242483145854 88.48130849153839,494.5830340980919 88.23355090384756,494.78760002684066 87.98907013760794,494.99607111932625 87.74792773954506,495.2083948940659 87.51018441596804,495.42451789968493 87.2759000174872,495.6443857283723 87.04513352394696,495.867943029578 86.81794302957799,496.095133523947 86.5943857283723,496.3259000174872 86.37451789968492,496.560184415968 86.15839489406595,496.79792773954506 85.94607111932623,497.03907013760795 85.73760002684067,497.2835509038476 85.53303409809189,497.5313084915384 85.33242483145852,497.7822805290327 85.1358227292506,498.03640383546224 84.94327728499603,498.2936144366435 84.75483697098066,498.5538475811832 84.57054922604587,498.81703775677886 84.39046044364585,499.0831187067113 84.21461596016854,499.35202344652413 84.0430600435223,499.6236842808873 83.87583588199168,499.8980328206385 83.71298557336507,500.17499999999995 83.55455011433682,500.4545160939655 83.40056939018643,500.73651073585313 83.25108216473777,501.0209129350199 83.10612607060041,501.30765109473305 82.96573759969588,501.5966530301942 82.82995209407098,501.88784598671174 82.69880373700056,502.18115665801605 82.5723255443822,502.47651120471414 82.4505493564245,502.77383527287833 82.33350582963156,503.07305401276454 82.22122442908532,503.3740920976552 82.11373342102793,503.6768737428222 82.01105986574582,503.9813227246056 81.91322961075747,504.2873623996024 81.8202672843064,504.59491572396104 81.73219628916115,504.90390527277674 81.64903879672374,505.21425325958313 81.57081574144824,505.5258815559341 81.49754681557049,505.8387117110725 81.4292504641507,506.1526649716798 81.36594388043015,506.46766230170164 81.30764300150275,506.78362440224464 81.25436250430299,507.10047173153964 81.20611580191108,507.41812452496595 81.16291504017637,507.73650281513153 81.12477109465958,508.05552645200453 81.091693567895,508.37511512309027 81.06369078697314,508.69518837365 81.04076980144431,509.01566562695456 81.02293638154406,509.3364662045692 81.01019501674047,509.65750934666414 81.002548914604,509.9787142323451 80.99999999999997,510.29999999999995 80.99999999999997,510.29999999999995 81.002548914604,510.6212857676548 81.01019501674047,510.9424906533358 81.02293638154406,511.26353379543076 81.04076980144431,511.58433437304546 81.06369078697314,511.90481162634995 81.091693567895,512.2248848769096 81.12477109465958,512.5444735479955 81.16291504017637,512.8634971848684 81.20611580191107,513.181875475034 81.25436250430297,513.4995282684603 81.30764300150275,513.8163755977554 81.36594388043015,514.1323376982982 81.4292504641507,514.4473350283201 81.49754681557049,514.7612882889274 81.57081574144824,515.0741184440659 81.64903879672374,515.3857467404168 81.73219628916115,515.6960947272232 81.8202672843064,516.0050842760389 81.91322961075747,516.3126376003976 82.01105986574582,516.6186772753944 82.11373342102793,516.9231262571777 82.22122442908532,517.2259079023448 82.33350582963156,517.5269459872354 82.4505493564245,517.8261647271216 82.5723255443822,518.1234887952859 82.69880373700056,518.4188433419839 82.82995209407098,518.7121540132882 82.96573759969588,519.0033469698056 83.10612607060041,519.2923489052669 83.25108216473777,519.57908706498 83.40056939018643,519.8634892641468 83.55455011433682,520.1454839060345 83.71298557336509,520.425 83.87583588199168,520.7019671793614 84.0430600435223,520.9763157191127 84.21461596016854,521.2479765534758 84.39046044364584,521.5168812932887 84.57054922604586,521.7829622432212 84.75483697098066,522.0461524188167 84.94327728499603,522.3063855633565 85.1358227292506,522.5635961645377 85.33242483145852,522.8177194709673 85.53303409809189,523.0686915084615 85.73760002684067,523.3164490961525 85.94607111932623,523.5609298623921 86.15839489406594,523.8020722604549 86.37451789968492,524.0398155840319 86.5943857283723,524.2740999825128 86.817943029578,524.5048664760529 87.04513352394696,524.732056970422 87.2759000174872,524.9556142716277 87.51018441596803,525.1754821003151 87.74792773954506,525.391605105934 87.98907013760794,525.6039288806737 88.23355090384754,525.8123999731592 88.48130849153839,526.0169659019081 88.7322805290327,526.2175751685414 88.98640383546221,526.4141772707493 89.24361443664348,526.6067227150039 89.5038475811832,526.7951630290192 89.76703775677886,526.9794507739541 90.03311870671122,527.1595395563542 90.30202344652412,527.3353840398314 90.57368428088729,527.5069399564776 90.8480328206385,527.6741641180083 91.12499999999997,527.8370144266348 91.40451609396547,527.9954498856631 91.68651073585313,528.1494306098135 91.9709129350199,528.2989178352622 92.25765109473303,528.4438739293996 92.54665303019425,528.584262400304 92.83784598671177,528.7200479059289 93.13115665801602,528.8511962629993 93.42651120471412,528.9776744556177 93.72383527287833,529.0994506435754 94.02305401276456,529.2164941703684 94.32409209765518,529.3287755709147 94.62687374282217,529.436266578972 94.93132272460561,529.5389401342542 95.23736239960239,529.6367703892424 95.54491572396101,529.7297327156936 95.85390527277676,529.8178037108388 96.16425325958312,529.9009612032762 96.47588155593407,529.9791842585516 96.78871171107251,530.0524531844294 97.10266497167986,530.1207495358493 97.41766230170165,530.1840561195698 97.73362440224463,530.2423569984971 98.05047173153962,530.295637495697 98.36812452496594,530.3438841980889 98.68650281513155,530.3870849598236 99.00552645200449,530.4252289053404 99.32511512309027,530.4583064321049 99.64518837364999,530.4863092130269 99.96566562695453,530.5092301985557 100.28646620456918,530.5270636184559 100.6075093466641,530.5398049832595 100.92871423234511,530.547451085396 101.24999999999997,530.55 222.74999999999997,530.55 " style="stroke:black;fill:none;stroke-width:2;stroke-linecap:round;stroke-linejoin:round;" /><path d="M 0.0,40.5 L -4.463837582892102e-15,64.8 L -7.625095819546128e-15,81.0" style="stroke:black;fill:none;stroke-width:2;stroke-linecap:round;stroke-linejoin:round;" /><path d="M -8.606050635848877e-15 87.1 L -2.4300000000000077 81.0 L 2.4299999999999917 81.0 Z" style="stroke:black;fill:black;stroke-linecap:butt;stroke-linejoin:miter;" /><path d="M -16.200000000000006,153.9 L -16.20000000000001,178.2 L -16.200000000000014,194.39999999999998" style="stroke:black;fill:none;stroke-width:2;stroke-linecap:round;stroke-linejoin:round;" /><path d="M -16.200000000000014 200.5 L -18.630000000000013 194.39999999999998 L -13.770000000000014 194.39999999999998 Z" style="stroke:black;fill:black;stroke-linecap:butt;stroke-linejoin:miter;" /><path d="M -32.40000000000001,267.3 L -32.40000000000002,291.59999999999997 L -32.40000000000002,307.8" style="stroke:black;fill:none;stroke-width:2;stroke-linecap:round;stroke-linejoin:round;" /><path d="M -32.40000000000002 313.9 L -34.83000000000002 307.79999999999995 L -29.97000000000002 307.79999999999995 Z" style="stroke:black;fill:black;stroke-linecap:butt;stroke-linejoin:miter;" /><path d="M -48.60000000000002,380.7 L -48.60000000000003,405.0 L -48.60000000000003,421.2" style="stroke:black;fill:none;stroke-width:2;stroke-linecap:round;stroke-linejoin:round;" /><path d="M -48.60000000000003 427.29999999999995 L -51.03000000000003 421.19999999999993 L -46.17000000000003 421.19999999999993 Z" style="stroke:black;fill:black;stroke-linecap:butt;stroke-linejoin:miter;" /><path d="M 32.39999999999997,510.29999999999995 L 56.69999999999997,510.29999999999995 L 72.89999999999996,510.29999999999995" style="stroke:black;fill:none;stroke-width:2;stroke-linecap:round;stroke-linejoin:round;" /><path d="M 78.99999999999997 510.29999999999995 L 72.89999999999998 512.7299999999999 L 72.89999999999998 507.86999999999995 Z" style="stroke:black;fill:black;stroke-linecap:butt;stroke-linejoin:miter;" /><path d="M -48.60000000000003,591.3 L -48.60000000000004,615.6 L -48.60000000000004,631.8" style="stroke:black;fill:none;stroke-width:2;stroke-linecap:round;stroke-linejoin:round;" /><path d="M -48.60000000000004 637.9 L -51.03000000000004 631.8000000000001 L -46.17000000000004 631.8000000000001 Z" style="stroke:black;fill:black;stroke-linecap:butt;stroke-linejoin:miter;" /><path d="M -210.60000000000002,672.3 L -210.60000000000002,639.9 L 113.39999999999996,639.9 L 113.39999999999996,704.6999999999999 L -210.60000000000002,704.6999999999999 L -210.60000000000002,672.3" style="stroke:black;fill:none;stroke-width:2;stroke-linecap:round;stroke-linejoin:round;" /><text fill="black" font-family="sans-serif" font-size="14" text-anchor="middle" transform="rotate(0 0.0 18.150000000000002)" x="0.0" y="12.550000000000002"><tspan dy="11.200000000000001" x="0.0">Data send form HIVEMQ</tspan></text><text fill="black" font-family="sans-serif" font-size="14" text-anchor="middle" transform="rotate(0 -8.100000000000009 119.39999999999999)" x="-8.100000000000009" y="105.39999999999998"><tspan dy="14" x="-8.100000000000009">receive into the on_message</tspan><tspan dy="14" x="-8.100000000000009">in comm_mqtt.MQTTConn</tspan></text><text fill="black" font-family="sans-serif" font-size="14" text-anchor="middle" transform="rotate(0 -24.300000000000015 232.79999999999998)" x="-24.300000000000015" y="218.79999999999998"><tspan dy="14" x="-24.300000000000015">process input message</tspan><tspan dy="14" x="-24.300000000000015">into a sensor status state</tspan></text><text fill="black" font-family="sans-serif" font-size="14" text-anchor="middle" transform="rotate(0 -40.50000000000002 346.2)" x="-40.50000000000002" y="332.2"><tspan dy="14" x="-40.50000000000002">send sensor status to</tspan><tspan dy="14" x="-40.50000000000002">main_gui2.SensorUI.change_status</tspan></text><text fill="black" font-family="sans-serif" font-size="14" text-anchor="start" transform="rotate(0 36.611999999999966 503.988)" x="36.611999999999966" y="492.788"><tspan dy="11.200000000000001" x="36.611999999999966">No</tspan></text><text fill="black" font-family="sans-serif" font-size="14" text-anchor="middle" transform="rotate(0 -48.60000000000003 508.2)" x="-48.60000000000003" y="487.20000000000005"><tspan dy="14" x="-48.60000000000003">is the name from</tspan><tspan dy="14" x="-48.60000000000003">the data found that in</tspan><tspan dy="14" x="-48.60000000000003">the NAMES list </tspan></text><text fill="black" font-family="sans-serif" font-size="14" text-anchor="middle" transform="rotate(0 161.99999999999997 508.2)" x="161.99999999999997" y="502.59999999999997"><tspan dy="11.200000000000001" x="161.99999999999997">Exit with no change</tspan></text><text fill="black" font-family="sans-serif" font-size="14" text-anchor="middle" transform="rotate(0 -48.60000000000004 670.2)" x="-48.60000000000004" y="656.2"><tspan dy="14" x="-48.60000000000004">call main_gui2.StatusButton.Toggle_color</tspan><tspan dy="14" x="-48.60000000000004">and set the prepare color the indicator </tspan></text></svg>